<?xml version="1.0" encoding="UTF-8" standalone="no"?>
<svg
   width="209.75235"
   height="26.398104"
   viewBox="0 0 209.75235 26.398104"
   version="1.1"
   id="svg1068"
   sodipodi:docname="logo.svg"
   inkscape:version="1.2.1 (9c6d41e410, 2022-07-14)"
   xml:space="preserve"
   xmlns:inkscape="http://www.inkscape.org/namespaces/inkscape"
   xmlns:sodipodi="http://sodipodi.sourceforge.net/DTD/sodipodi-0.dtd"
   xmlns:xlink="http://www.w3.org/1999/xlink"
   xmlns="http://www.w3.org/2000/svg"
   xmlns:svg="http://www.w3.org/2000/svg"><sodipodi:namedview
     id="namedview1070"
     pagecolor="#ffffff"
     bordercolor="#666666"
     borderopacity="1.0"
     inkscape:showpageshadow="2"
     inkscape:pageopacity="0.0"
     inkscape:pagecheckerboard="0"
     inkscape:deskcolor="#d1d1d1"
     showgrid="false"
     inkscape:zoom="40.91603"
     inkscape:cx="45.275653"
     inkscape:cy="20.823135"
     inkscape:window-width="1920"
     inkscape:window-height="1016"
     inkscape:window-x="0"
     inkscape:window-y="0"
     inkscape:window-maximized="1"
     inkscape:current-layer="svg1068" /><defs
     id="defs1046"><linearGradient
       inkscape:collect="always"
       id="linearGradient5937"><stop
         style="stop-color:#fec000;stop-opacity:1;"
         offset="0"
         id="stop5933" /><stop
         style="stop-color:#ff9400;stop-opacity:1;"
         offset="1"
         id="stop5935" /></linearGradient><path
       d="m 14.371642,25.210735 c -2.738508,0 -5.3131345,1.058675 -6.7383584,2.58928 C 5.9738806,25.449974 5,22.604429 5,19.535798 5,11.478952 11.698955,4.9470336 19.96194,4.9470336 c 0.917911,0 1.815224,0.085131 2.687015,0.2396754 L 18.679552,26.3445 c -1.069701,-0.704183 -2.56791,-1.133765 -4.30791,-1.133765 z M 28.837463,7.7921418 c 3.691791,2.6565112 6.087313,6.9270112 6.087313,11.7436562 0,8.056847 -6.698955,14.589202 -14.962836,14.589202 -1.288656,0 -2.538806,-0.15891 -3.732089,-0.457522 2.073134,-0.774034 3.649701,-2.145291 4.05985,-3.724355 l 0.0067,0.0061 0.01657,-0.08862 c 0.0067,-0.02925 0.01836,-0.05719 0.02418,-0.08644 0.0094,-0.04584 0.0103,-0.09037 0.01746,-0.136209 l 3.522985,-17.881355 c 1.915075,0.326116 3.423582,1.098403 4.792836,2.361392 1.884627,1.738847 2.148358,3.793769 2.148358,3.793769 C 33.047761,13.541295 30.760597,9.4751082 29.183134,8.0911903 29.063582,7.9868508 28.95209,7.8912425 28.837463,7.7921418 Z"
       id="path-1" /><linearGradient
       x1="-0.026703522"
       y1="0.68971884"
       x2="0.91126877"
       y2="0.60157168"
       id="linearGradient-3"><stop
         stop-color="#FECE00"
         offset="0%"
         id="stop1041" /><stop
         stop-color="#FF9000"
         offset="100%"
         id="stop1043" /></linearGradient><path
       d="m 14.371642,25.210735 c -2.738508,0 -5.3131345,1.058675 -6.7383584,2.58928 C 5.9738806,25.449974 5,22.604429 5,19.535798 5,11.478952 11.698955,4.9470336 19.96194,4.9470336 c 0.917911,0 1.815224,0.085131 2.687015,0.2396754 L 18.679552,26.3445 c -1.069701,-0.704183 -2.56791,-1.133765 -4.30791,-1.133765 z M 28.837463,7.7921418 c 3.691791,2.6565112 6.087313,6.9270112 6.087313,11.7436562 0,8.056847 -6.698955,14.589202 -14.962836,14.589202 -1.288656,0 -2.538806,-0.15891 -3.732089,-0.457522 2.073134,-0.774034 3.649701,-2.145291 4.05985,-3.724355 l 0.0067,0.0061 0.01657,-0.08862 c 0.0067,-0.02925 0.01836,-0.05719 0.02418,-0.08644 0.0094,-0.04584 0.0103,-0.09037 0.01746,-0.136209 l 3.522985,-17.881355 c 1.915075,0.326116 3.423582,1.098403 4.792836,2.361392 1.884627,1.738847 2.148358,3.793769 2.148358,3.793769 C 33.047761,13.541295 30.760597,9.4751082 29.183134,8.0911903 29.063582,7.9868508 28.95209,7.8912425 28.837463,7.7921418 Z"
       id="path-1-6" /><linearGradient
       inkscape:collect="always"
       xlink:href="#linearGradient5937"
       id="linearGradient5939"
       x1="24.385784"
       y1="15.444766"
       x2="51.197388"
       y2="15.444766"
       gradientUnits="userSpaceOnUse"
       gradientTransform="matrix(1.0600271,0,0,1.0600271,-9.602356e-8,-0.39233821)" /></defs><path
     d="m 79.543647,26.226171 1.556354,-10.400398 c 0.492631,-3.387249 0,-5.080877 -1.478657,-5.080877 h -2.257116 c -0.882564,0.02287 -2.076,0.595338 -3.580337,1.71672 L 71.721724,26.226171 H 67.440612 L 70.242433,7.5180294 h 3.930709 v 1.476146 c 1.219154,-0.983457 2.451436,-1.476146 3.696923,-1.476146 h 2.257116 c 2.386865,0 3.891852,0.812811 4.514917,2.437794 1.400272,-1.373504 3.021812,-2.185673 4.863983,-2.437794 h 1.906765 c 4.306164,0 6.04495,2.7694606 5.215007,8.3077436 l -1.556986,10.400398 h -4.241568 l 1.556342,-10.400398 c 0.492663,-3.387249 0,-5.080877 -1.478634,-5.080877 h -1.867881 c -0.882554,0.02287 -2.075986,0.67553 -3.580326,1.956654 0.07767,0.892361 0.02513,1.934195 -0.156124,3.124223 l -1.55635,10.400398 h -4.202722"
     id="Fill-5"
     fill="#ffffff"
     style="fill:#ffffff;fill-opacity:1;fill-rule:evenodd;stroke:none;stroke-width:1.49689" /><path
     d="m 113.25575,7.7239574 h 4.2811 l -2.6464,17.7477846 c -3.65803,0.411856 -6.56391,0.640881 -8.717,0.687067 -5.4482,0 -7.770534,-2.713001 -6.966364,-8.136455 L 100.7641,7.7239574 h 4.28114 l -1.55706,10.2983966 c -0.46695,3.135772 0.59612,4.703657 3.19107,4.703657 2.10107,-0.02287 3.58038,-0.241241 4.43594,-0.653069 l 2.14056,-14.3489846"
     id="Fill-6"
     fill="#ffffff"
     style="fill:#ffffff;fill-opacity:1;fill-rule:evenodd;stroke:none;stroke-width:1.49689" /><path
     d="m 135.85005,7.7926024 -0.46627,3.0895826 -8.44499,-0.03418 c -1.99759,0 -3.03566,0.286119 -3.11333,0.858362 l -0.27256,1.853367 c -0.0258,0.617784 0.59673,1.041193 1.86788,1.270218 l 4.59264,0.755078 c 3.47625,0.572239 5.01945,2.083025 4.63017,4.531728 l -0.23261,1.716069 c -0.44195,2.906111 -2.88088,4.359802 -7.31742,4.359802 l -9.26102,-0.240564 0.46695,-3.158225 9.1451,0.06798 c 1.79021,0 2.73729,-0.342555 2.84071,-1.029004 l 0.23325,-1.71608 c 0.10406,-0.640879 -0.53081,-1.087384 -1.90606,-1.339506 l -5.05959,-0.823075 c -2.93223,-0.68707 -4.31931,-2.106124 -4.16389,-4.257158 l 0.35036,-1.990653 c 0.41492,-2.7925566 2.98298,-4.1885126 7.70535,-4.1885126 l 8.40546,0.274586"
     id="Fill-7"
     fill="#ffffff"
     style="fill:#ffffff;fill-opacity:1;fill-rule:evenodd;stroke:none;stroke-width:1.49689" /><path
     d="M 145.25998,1.9637454e-8 144.71529,3.5360819 h -4.28114 L 140.97888,1.9637454e-8 Z M 144.13174,7.5180294 141.32924,26.158809 h -4.2811 l 2.8025,-18.6407796 z"
     id="Fill-8"
     fill="#ffffff"
     style="fill:#ffffff;fill-opacity:1;fill-rule:evenodd;stroke:none;stroke-width:1.49689" /><path
     d="m 160.19245,26.020888 -7.70531,0.377216 c -5.42249,0 -7.66647,-3.123588 -6.73253,-9.370754 0.95897,-6.317094 4.15068,-9.4753226 9.57323,-9.4753226 l 7.54923,0.412502 -0.46631,3.0889416 -7.51038,-0.102644 c -2.62137,0 -4.24228,2.025289 -4.86532,6.076519 -0.59672,4.027493 0.41495,6.041239 3.0363,6.041239 l 7.54926,-0.0693 -0.42817,3.021579"
     id="Fill-9"
     fill="#ffffff"
     style="fill:#ffffff;fill-opacity:1;fill-rule:evenodd;stroke:none;stroke-width:1.49689" /><path
     d="m 171.10405,10.81354 c -2.46525,0 -3.9571,1.705171 -4.47541,5.114876 l -0.27254,1.990657 c -0.51903,3.410339 0.4538,5.116158 2.91905,5.116158 h 2.25712 c 2.46461,0 3.95642,-1.705819 4.4754,-5.116158 l 0.27256,-1.990657 c 0.51834,-3.409705 -0.45445,-5.114876 -2.91973,-5.114876 z m 9.41714,5.114876 -0.27191,1.990657 c -0.83123,5.49337 -3.89189,8.239736 -9.18402,8.239736 h -2.25777 c -5.2144,0 -7.407,-2.746366 -6.57576,-8.239736 l 0.27191,-1.990657 c 0.83053,-5.538282 3.85232,-8.3077426 9.06739,-8.3077426 h 2.2571 c 5.29213,0 7.52356,2.7694606 6.69306,8.3077426 z"
     id="Fill-10"
     fill="#ffffff"
     style="fill:#ffffff;fill-opacity:1;fill-rule:evenodd;stroke:none;stroke-width:1.49689" /><g
     id="Group-14"
     transform="matrix(1.4968911,0,0,1.4968911,182.16245,-0.52027658)"
     fill="#ffffff"
     style="fill:#ffffff;fill-opacity:1;fill-rule:evenodd;stroke:none;stroke-width:1"><path
       d="M 5.67908,0.34757143 5.3152,2.7098571 H 2.45564 L 2.81952,0.34757143 Z M 4.92536,5.37 3.05316,17.823 H 0.1936 L 2.0658,5.37 Z"
       id="Fill-11"
       style="fill:#ffffff;fill-opacity:1" /><path
       d="M 8.7362,17.868 H 5.87664 L 7.7484,5.37 h 2.62592 l 0.02596,0.9634286 C 11.19712,5.691 12.01156,5.37 12.8436,5.37 h 1.716 c 3.05052,0 4.29836,1.8501429 3.74396,5.55 l -1.03972,6.948 H 14.45576 L 15.49548,10.92 C 15.8246,8.6571429 15.4,7.5257143 14.22212,7.5257143 h -1.71644 c -0.6072,0.015429 -1.4036,0.3977143 -2.3914,1.1468571 L 8.7362,17.868"
       id="Fill-13"
       style="fill:#ffffff;fill-opacity:1" /></g><rect
     style="fill:#fec000;fill-opacity:1;stroke:none;stroke-width:4.0797;stroke-dasharray:none;stroke-opacity:1"
     id="rect103-9-7"
     width="26.489847"
     height="2.6764524"
     x="0"
     y="14.971345" /><rect
     style="fill:#ff9400;fill-opacity:1;stroke:none;stroke-width:2.72161;stroke-dasharray:none;stroke-opacity:1"
     id="rect103-5-1-5"
     width="11.788951"
     height="2.6764524"
     x="51.692802"
     y="14.971345" /><path
     d="m 49.769861,18.636348 c -0.85975,3.137023 -5.899993,4.4892 -11.262938,3.020481 -5.362983,-1.46868 -9.013849,-5.197426 -8.15165,-8.341752 0.85975,-3.133582 5.897545,-4.4818198 11.26298,-3.017046 5.358048,1.468952 9.01633,5.201101 8.151608,8.338317 z M 40.078608,6.5360597 c -7.851084,-0.01537 -14.216705,4.2066483 -14.229013,9.4188723 -0.0038,5.223462 6.348374,9.45668 14.194524,9.468073 7.851046,0.01537 14.216667,-4.206869 14.226493,-9.422806 0.0075,-5.216124 -6.345892,-9.4490763 -14.192004,-9.4641393"
     style="font-variation-settings:normal;vector-effect:none;fill:url(#linearGradient5939);fill-opacity:1;fill-rule:nonzero;stroke:none;stroke-width:0.0246347;stroke-linecap:butt;stroke-linejoin:miter;stroke-miterlimit:4;stroke-dasharray:none;stroke-dashoffset:0;stroke-opacity:1;-inkscape-stroke:none;stop-color:#000000"
     id="path16-3-1-8-9-3" /></svg>
