<?xml version="1.0" encoding="UTF-8" standalone="no"?>
<svg
   width="131px"
   height="30px"
   viewBox="0 0 131 30"
   version="1.1"
   id="svg2"
   sodipodi:docname="logo.svg"
   inkscape:version="1.3-dev (4bdea3d, 2022-09-10)"
   xmlns:inkscape="http://www.inkscape.org/namespaces/inkscape"
   xmlns:sodipodi="http://sodipodi.sourceforge.net/DTD/sodipodi-0.dtd"
   xmlns="http://www.w3.org/2000/svg"
   xmlns:svg="http://www.w3.org/2000/svg">
  <sodipodi:namedview
     id="namedview2"
     pagecolor="#ffffff"
     bordercolor="#000000"
     borderopacity="0.25"
     inkscape:showpageshadow="2"
     inkscape:pageopacity="0.0"
     inkscape:pagecheckerboard="0"
     inkscape:deskcolor="#d1d1d1"
     showgrid="false"
     inkscape:zoom="7.0872611"
     inkscape:cx="65.681226"
     inkscape:cy="14.744765"
     inkscape:window-width="1920"
     inkscape:window-height="1016"
     inkscape:window-x="0"
     inkscape:window-y="0"
     inkscape:window-maximized="1"
     inkscape:current-layer="svg2" />
  <defs
     id="defs2">
    <path
       d="M14.3716418,25.2107351 C11.6331343,25.2107351 9.05850746,26.2694104 7.63328358,27.8000149 C5.9738806,25.4499739 5,22.6044291 5,19.5357985 C5,11.4789515 11.6989552,4.94703358 19.9619403,4.94703358 C20.8798507,4.94703358 21.7771642,5.03216418 22.6489552,5.18670896 L18.6795522,26.3445 C17.6098507,25.6403172 16.1116418,25.2107351 14.3716418,25.2107351 Z M28.8374627,7.79214179 C32.5292537,10.448653 34.9247761,14.719153 34.9247761,19.5357985 C34.9247761,27.5926455 28.2258209,34.125 19.9619403,34.125 C18.6732836,34.125 17.4231343,33.9660896 16.2298507,33.6674776 C18.3029851,32.893444 19.8795522,31.5221866 20.2897015,29.9431231 L20.2964179,29.9492351 L20.3129851,29.8606119 C20.3197015,29.8313619 20.3313433,29.8034216 20.3371642,29.7741716 C20.3465672,29.7283321 20.3474627,29.6838022 20.3546269,29.6379627 L23.8776119,11.7566082 C25.7926866,12.0827239 27.301194,12.8550112 28.6704478,14.118 C30.5550746,15.856847 30.818806,17.9117687 30.818806,17.9117687 C33.0477612,13.5412948 30.760597,9.47510821 29.1831343,8.0911903 C29.0635821,7.98685075 28.9520896,7.89124254 28.8374627,7.79214179 Z"
       id="path-1" />
    <linearGradient
       x1="-2.67035231%"
       y1="68.9718881%"
       x2="91.1268802%"
       y2="60.1571697%"
       id="linearGradient-3">
      <stop
         stop-color="#FECE00"
         offset="0%"
         id="stop1" />
      <stop
         stop-color="#FF9000"
         offset="100%"
         id="stop2" />
    </linearGradient>
  </defs>
  <rect
     style="fill:#fbce00;fill-opacity:1;stroke:none;stroke-width:2.44385;stroke-dasharray:none;stroke-opacity:1"
     id="rect103-7-7"
     width="16.270475"
     height="1.5636307"
     x="-2.3314684e-15"
     y="14.368248" />
  <text
     xml:space="preserve"
     style="font-style:normal;font-variant:normal;font-weight:normal;font-stretch:normal;font-size:30.5316px;font-family:Dhurjati;-inkscape-font-specification:Dhurjati;font-variant-ligatures:normal;font-variant-caps:normal;font-variant-numeric:normal;font-variant-east-asian:normal;fill:#ff6600;fill-opacity:1;fill-rule:nonzero;stroke:none;stroke-width:15.6745;stroke-dasharray:none"
     x="34.562595"
     y="20.704292"
     id="text27-6-2-9-9"><tspan
       sodipodi:role="line"
       id="tspan27-2-6-2-2"
       style="font-style:normal;font-variant:normal;font-weight:normal;font-stretch:normal;font-size:30.5316px;font-family:Dhurjati;-inkscape-font-specification:Dhurjati;font-variant-ligatures:normal;font-variant-caps:normal;font-variant-numeric:normal;font-variant-east-asian:normal;fill:#ff6600;stroke-width:15.6745"
       x="34.562595"
       y="20.704292">Musicoin</tspan></text>
  <path
     d="m 29.679196,16.712673 c -0.505654,1.845035 -3.470112,2.64034 -6.624349,1.776504 -3.154259,-0.863837 -5.301521,-3.056891 -4.794414,-4.906258 0.505677,-1.843003 3.46866,-2.635984 6.624371,-1.774471 3.151355,0.86397 5.302972,3.059056 4.794392,4.904225 z M 23.979241,9.595827 c -4.617635,-0.0089 -8.361605,2.474149 -8.368843,5.539728 -0.0022,3.072236 3.733807,5.562021 8.34856,5.568699 4.617636,0.0089 8.361583,-2.474282 8.367391,-5.542051 0.0045,-3.067879 -3.732377,-5.557531 -8.347108,-5.566376"
     style="fill:#fbce00;fill-opacity:1;fill-rule:nonzero;stroke:none;stroke-width:0.014489"
     id="path16-3-1-02-0" />
</svg>
