<?xml version="1.0" encoding="UTF-8" standalone="no"?>
<svg
   width="131px"
   height="30px"
   viewBox="0 0 131 30"
   version="1.1"
   id="svg2"
   sodipodi:docname="logo.svg"
   inkscape:version="1.2.1 (9c6d41e410, 2022-07-14)"
   xmlns:inkscape="http://www.inkscape.org/namespaces/inkscape"
   xmlns:sodipodi="http://sodipodi.sourceforge.net/DTD/sodipodi-0.dtd"
   xmlns="http://www.w3.org/2000/svg"
   xmlns:svg="http://www.w3.org/2000/svg">
  <sodipodi:namedview
     id="namedview2"
     pagecolor="#ffffff"
     bordercolor="#000000"
     borderopacity="0.25"
     inkscape:showpageshadow="2"
     inkscape:pageopacity="0.0"
     inkscape:pagecheckerboard="0"
     inkscape:deskcolor="#d1d1d1"
     showgrid="false"
     inkscape:zoom="7.0872611"
     inkscape:cx="65.681226"
     inkscape:cy="14.815314"
     inkscape:window-width="1920"
     inkscape:window-height="1016"
     inkscape:window-x="0"
     inkscape:window-y="0"
     inkscape:window-maximized="1"
     inkscape:current-layer="svg2" />
  <defs
     id="defs2">
    <path
       d="M14.3716418,25.2107351 C11.6331343,25.2107351 9.05850746,26.2694104 7.63328358,27.8000149 C5.9738806,25.4499739 5,22.6044291 5,19.5357985 C5,11.4789515 11.6989552,4.94703358 19.9619403,4.94703358 C20.8798507,4.94703358 21.7771642,5.03216418 22.6489552,5.18670896 L18.6795522,26.3445 C17.6098507,25.6403172 16.1116418,25.2107351 14.3716418,25.2107351 Z M28.8374627,7.79214179 C32.5292537,10.448653 34.9247761,14.719153 34.9247761,19.5357985 C34.9247761,27.5926455 28.2258209,34.125 19.9619403,34.125 C18.6732836,34.125 17.4231343,33.9660896 16.2298507,33.6674776 C18.3029851,32.893444 19.8795522,31.5221866 20.2897015,29.9431231 L20.2964179,29.9492351 L20.3129851,29.8606119 C20.3197015,29.8313619 20.3313433,29.8034216 20.3371642,29.7741716 C20.3465672,29.7283321 20.3474627,29.6838022 20.3546269,29.6379627 L23.8776119,11.7566082 C25.7926866,12.0827239 27.301194,12.8550112 28.6704478,14.118 C30.5550746,15.856847 30.818806,17.9117687 30.818806,17.9117687 C33.0477612,13.5412948 30.760597,9.47510821 29.1831343,8.0911903 C29.0635821,7.98685075 28.9520896,7.89124254 28.8374627,7.79214179 Z"
       id="path-1" />
    <linearGradient
       x1="-2.67035231%"
       y1="68.9718881%"
       x2="91.1268802%"
       y2="60.1571697%"
       id="linearGradient-3">
      <stop
         stop-color="#FECE00"
         offset="0%"
         id="stop1" />
      <stop
         stop-color="#FF9000"
         offset="100%"
         id="stop2" />
    </linearGradient>
  </defs>
  <path
     id="rect103-7-7"
     style="fill:#fbce00;stroke-width:2.44385"
     d="m 0,14.368248 h 16.270475 v 1.563631 H 0 Z" />
  <g
     aria-label="Musicoin"
     id="text27-6-2-9-9"
     style="font-size:30.5316px;font-family:Dhurjati;-inkscape-font-specification:Dhurjati;fill:#ff6600;stroke-width:15.6745">
    <path
       d="M 35.685597,20.704292 V 5.9999925 h 3.474285 l 4.176162,8.7383545 4.211255,-8.7383545 h 3.439192 V 20.704292 h -3.404098 v -7.474978 l -2.456566,5.158788 H 41.581354 L 39.054601,13.19422 v 7.510072 z"
       id="path216" />
    <path
       d="m 61.268922,9.7199347 h 3.369005 V 20.704292 H 61.268922 V 20.03751 q -0.386031,0.280751 -1.01772,0.491313 -0.596594,0.175469 -1.228282,0.175469 h -1.263377 q -0.807157,0 -1.579221,-0.175469 -0.736969,-0.175469 -1.29847,-0.491313 -0.561501,-0.350938 -0.912439,-0.842251 -0.350938,-0.491313 -0.350938,-1.123001 V 9.7199347 h 3.369005 v 8.0364793 q 0,0.491313 0.386031,0.736969 0.386032,0.245657 1.052814,0.245657 h 0.877345 q 0.386032,0 0.73697,-0.105282 0.350938,-0.105281 0.631688,-0.28075 0.28075,-0.210563 0.421125,-0.421125 0.175469,-0.245657 0.175469,-0.526407 z"
       id="path218" />
    <path
       d="m 71.375912,15.68588 q -0.807157,0 -1.579221,-0.140375 -0.736969,-0.175469 -1.29847,-0.491314 -0.561501,-0.350938 -0.912439,-0.842251 -0.350937,-0.491313 -0.350937,-1.123001 v -0.772064 q 0,-0.631688 0.350937,-1.123001 0.350938,-0.491313 0.912439,-0.807157 0.561501,-0.350938 1.29847,-0.5264071 0.772064,-0.175469 1.579221,-0.175469 h 2.737316 q 0.842251,0 1.579221,0.175469 0.73697,0.1754691 1.29847,0.5264071 0.596595,0.315844 0.912439,0.807157 0.350938,0.491313 0.350938,1.123001 v 0.491314 H 74.885292 V 12.63272 q 0,-0.491313 -0.386032,-0.73697 -0.386032,-0.245657 -1.052814,-0.245657 h -1.403752 q -0.666782,0 -1.052813,0.245657 -0.386032,0.245657 -0.386032,0.73697 v 0.105281 q 0,0.526407 0.386032,0.772063 0.386031,0.245657 1.052813,0.210563 h 2.070534 q 0.842251,0 1.579221,0.175469 0.73697,0.175469 1.29847,0.526407 0.596595,0.315844 0.912439,0.807157 0.350938,0.491314 0.350938,1.123002 v 1.719596 q 0,0.631688 -0.350938,1.123001 -0.315844,0.491313 -0.912439,0.842251 -0.5615,0.315844 -1.29847,0.491313 -0.73697,0.175469 -1.579221,0.175469 h -2.737316 q -0.807157,0 -1.579221,-0.175469 -0.736969,-0.175469 -1.29847,-0.491313 -0.561501,-0.350938 -0.912439,-0.842251 -0.350937,-0.491313 -0.350937,-1.123001 V 16.98435 h 3.369004 v 0.772064 q 0,0.491313 0.386032,0.736969 0.386031,0.245657 1.052813,0.245657 h 1.403752 q 0.666782,0 1.052814,-0.245657 0.386032,-0.245656 0.386032,-0.736969 v -1.087908 q 0,-0.491313 -0.386032,-0.73697 -0.386032,-0.245656 -1.052814,-0.245656 z"
       id="path220" />
    <path
       d="m 81.237223,9.7199347 h 3.369004 V 20.704292 H 81.237223 Z M 84.606227,6.772056 V 8.7373085 H 81.237223 V 6.772056 Z"
       id="path222" />
    <path
       d="m 87.273304,12.316875 q 0,-0.631688 0.350938,-1.123001 0.350938,-0.491313 0.912439,-0.807157 0.561501,-0.350938 1.29847,-0.5264071 0.772064,-0.175469 1.579221,-0.175469 h 2.351284 q 0.807157,0 1.544127,0.175469 0.73697,0.1754691 1.298471,0.5264071 0.596594,0.315844 0.912438,0.807157 0.350938,0.491313 0.350938,1.123001 v 1.123002 H 94.502626 V 12.63272 q 0,-0.491313 -0.386032,-0.73697 -0.386032,-0.245657 -1.01772,-0.245657 h -1.01772 q -0.666782,0 -1.052814,0.245657 -0.386031,0.245657 -0.386031,0.73697 v 5.123694 q 0,0.491313 0.386031,0.736969 0.386032,0.245657 1.052814,0.245657 h 1.01772 q 0.631688,0 1.01772,-0.245657 0.386032,-0.245656 0.386032,-0.736969 V 16.98435 h 3.369004 v 1.087908 q 0,0.631688 -0.350938,1.123001 -0.315844,0.491313 -0.912438,0.842251 -0.561501,0.315844 -1.298471,0.491313 -0.73697,0.175469 -1.544127,0.175469 h -2.351284 q -0.807157,0 -1.579221,-0.175469 -0.736969,-0.175469 -1.29847,-0.491313 -0.561501,-0.350938 -0.912439,-0.842251 -0.350938,-0.491313 -0.350938,-1.123001 z"
       id="path224" />
    <path
       d="m 100.39835,12.316875 q 0,-0.631688 0.35094,-1.123001 0.35094,-0.491313 0.91244,-0.807157 0.5615,-0.350938 1.29847,-0.5264071 0.77206,-0.175469 1.57922,-0.175469 h 2.35128 q 0.80716,0 1.54413,0.175469 0.73697,0.1754691 1.29847,0.5264071 0.59659,0.315844 0.91244,0.807157 0.35094,0.491313 0.35094,1.123001 v 5.755383 q 0,0.631688 -0.35094,1.123001 -0.31585,0.491313 -0.91244,0.842251 -0.5615,0.315844 -1.29847,0.491313 -0.73697,0.175469 -1.54413,0.175469 h -2.35128 q -0.80716,0 -1.57922,-0.175469 -0.73697,-0.175469 -1.29847,-0.491313 -0.5615,-0.350938 -0.91244,-0.842251 -0.35094,-0.491313 -0.35094,-1.123001 z m 7.22932,0.315845 q 0,-0.491313 -0.38603,-0.73697 -0.38603,-0.245657 -1.01772,-0.245657 h -1.01772 q -0.66678,0 -1.05281,0.245657 -0.38604,0.245657 -0.38604,0.73697 v 5.123694 q 0,0.491313 0.38604,0.736969 0.38603,0.245657 1.05281,0.245657 h 1.01772 q 0.63169,0 1.01772,-0.245657 0.38603,-0.245656 0.38603,-0.736969 z"
       id="path226" />
    <path
       d="m 113.94452,9.7199347 h 3.36901 V 20.704292 h -3.36901 z m 3.36901,-2.9478787 v 1.9652525 h -3.36901 V 6.772056 Z"
       id="path228" />
    <path
       d="M 123.34961,20.704292 H 119.9806 V 9.7199347 h 3.36901 v 0.6667823 q 0.38603,-0.315844 0.98262,-0.4913133 0.63169,-0.175469 1.29847,-0.175469 h 1.22829 q 0.84225,0 1.57922,0.175469 0.73697,0.1754693 1.29847,0.5264073 0.59659,0.315844 0.91244,0.807157 0.35093,0.456219 0.35093,1.087907 v 8.387417 h -3.369 v -8.036479 q 0,-0.526406 -0.38603,-0.736969 -0.38603,-0.245657 -1.05282,-0.245657 h -0.87734 q -0.38603,0 -0.73697,0.105282 -0.35094,0.105281 -0.63169,0.28075 -0.28075,0.175469 -0.45622,0.421125 -0.14037,0.245657 -0.14037,0.526407 z"
       id="path230" />
  </g>
  <path
     d="m 29.679196,16.712673 c -0.505654,1.845035 -3.470112,2.64034 -6.624349,1.776504 -3.154259,-0.863837 -5.301521,-3.056891 -4.794414,-4.906258 0.505677,-1.843003 3.46866,-2.635984 6.624371,-1.774471 3.151355,0.86397 5.302972,3.059056 4.794392,4.904225 z M 23.979241,9.595827 c -4.617635,-0.0089 -8.361605,2.474149 -8.368843,5.539728 -0.0022,3.072236 3.733807,5.562021 8.34856,5.568699 4.617636,0.0089 8.361583,-2.474282 8.367391,-5.542051 0.0045,-3.067879 -3.732377,-5.557531 -8.347108,-5.566376"
     style="fill:#fbce00;fill-opacity:1;fill-rule:nonzero;stroke:none;stroke-width:0.014489"
     id="path16-3-1-02-0" />
</svg>
